<?xml version="1.0" encoding="utf-8"?>
<!-- Generator: Adobe Illustrator 22.1.0, SVG Export Plug-In . SVG Version: 6.00 Build 0)  -->
<svg version="1.1" id="Layer_1" xmlns="http://www.w3.org/2000/svg" xmlns:xlink="http://www.w3.org/1999/xlink" x="0px" y="0px"
	 viewBox="0 0 512 512" style="enable-background:new 0 0 512 512;" xml:space="preserve">
<style type="text/css">
	.st0{fill:#ECF0F1;}
	.st1{fill:#556080;}
	.st2{fill:#3D4763;}
	.st3{fill:#D1D1D1;}
</style>
<g>
	<path class="st0" d="M412.2,407.9H99.8l25.1-326.5c0.5-6.7,6.1-11.9,12.9-11.9h236.4c6.8,0,12.4,5.2,12.9,11.9L412.2,407.9z"/>
	<path class="st1" d="M434.3,512H77.7c-7,0-12.7-5.7-12.7-12.7v-78.8c0-7,5.7-12.7,12.7-12.7h356.5c7,0,12.7,5.7,12.7,12.7v78.8
		C446.9,506.3,441.2,512,434.3,512"/>
	<g>
		<polygon class="st2" points="117.2,512 134.5,512 134.5,477.3 117.2,477.3 		"/>
		<polygon class="st2" points="160.5,512 177.9,512 177.9,477.3 160.5,477.3 		"/>
		<polygon class="st2" points="203.9,512 221.3,512 221.3,477.3 203.9,477.3 		"/>
		<polygon class="st2" points="247.3,512 264.7,512 264.7,477.3 247.3,477.3 		"/>
		<polygon class="st2" points="290.7,512 308.1,512 308.1,477.3 290.7,477.3 		"/>
		<polygon class="st2" points="334.1,512 351.5,512 351.5,477.3 334.1,477.3 		"/>
		<polygon class="st2" points="377.5,512 394.8,512 394.8,477.3 377.5,477.3 		"/>
	</g>
	<g>
		<path class="st3" d="M282,312.4H230c-4.8,0-8.7-3.9-8.7-8.7s3.9-8.7,8.7-8.7H282c4.8,0,8.7,3.9,8.7,8.7S286.8,312.4,282,312.4"/>
		<path class="st3" d="M325.4,144.3v128c0,2.9-2.5,5.4-5.4,5.2c-35.8-2.8-64-32.7-64-69.2c0-36.5,28.2-66.5,64-69.2
			C323,138.8,325.4,141.3,325.4,144.3"/>
		<path class="st3" d="M186.6,144.3v128c0,2.9,2.5,5.4,5.4,5.2c35.8-2.8,64-32.7,64-69.2c0-36.5-28.2-66.5-64-69.2
			C189,138.8,186.6,141.3,186.6,144.3"/>
		<path class="st3" d="M256,347.1c-4.8,0-8.7-3.9-8.7-8.7V208.3c0-4.8,3.9-8.7,8.7-8.7c4.8,0,8.7,3.9,8.7,8.7v130.2
			C264.7,343.2,260.8,347.1,256,347.1"/>
	</g>
	<polygon class="st3" points="230,407.9 282,407.9 282,338.4 230,338.4 	"/>
	<path class="st3" d="M299.4,381.8h-86.8c-4.8,0-8.7-3.9-8.7-8.7s3.9-8.7,8.7-8.7h86.8c4.8,0,8.7,3.9,8.7,8.7
		C308.1,377.9,304.2,381.8,299.4,381.8"/>
</g>
</svg>
